<svg width="3570" height="634" viewBox="0 0 3570 634" fill="none" xmlns="http://www.w3.org/2000/svg">
<g clip-path="url(#clip0_1275_40115)">
<path d="M2142.16 552.14C2127.43 535.07 2110.03 515.65 2089.95 493.9C2131.45 454.07 2160.91 415.58 2178.31 378.43C2196.05 340.95 2208.26 290.91 2214.96 228.31C2217.97 200.53 2220.65 160.53 2222.99 108.32L2290.26 111.83C2287.58 166.05 2285.24 204.04 2283.23 225.8C2276.53 299.77 2263.98 358.52 2245.58 402.02C2226.17 447.89 2191.69 497.92 2142.16 552.14ZM2516.2 550.13C2465.99 502.26 2430.35 454.57 2409.26 407.04C2387.5 358.84 2373.94 295.76 2368.59 217.76C2365.24 175.26 2362.73 136.93 2361.06 102.79L2427.83 101.28C2429.84 150.82 2432.35 190.32 2435.36 219.76C2441.38 288.38 2454.77 342.26 2475.52 381.42C2495.93 420.25 2527.23 455.73 2569.41 487.86L2516.2 550.13Z" fill="#0172F9"/>
<path d="M2791.82 545.62V181.62C2765.38 182.96 2740.11 183.97 2716.01 184.63L2715.01 280.02C2714.34 347.63 2709.65 399.34 2700.95 435.16C2691.58 473.31 2672.66 513.81 2644.22 556.66C2629.49 541.93 2612.59 525.86 2593.51 508.46C2615.93 475 2630.83 443.53 2638.19 414.08C2645.55 384.96 2649.56 340.95 2650.24 282.04L2651.24 122.89C2779.09 118.87 2904.28 111.68 3026.78 101.3L3050.88 164.06C3025.44 166.41 3003.51 168.25 2985.11 169.58C2985.78 253.93 2992.3 319.19 3004.69 365.38C3017.07 411.57 3040 457.59 3073.47 503.45C3055.4 515.5 3034.98 530.06 3012.22 547.13C2978.08 493.25 2954.99 440.37 2942.94 388.48C2930.55 336.6 2923.86 265.15 2922.86 174.1C2892.74 176.11 2870.31 177.45 2855.58 178.12V545.63H2791.82V545.62Z" fill="#0172F9"/>
<path d="M3139.75 270.99C3130.71 261.29 3116.32 246.06 3096.57 225.3C3153.47 186.14 3198.49 139.12 3231.62 84.22L3304.92 90.24C3298.56 100.62 3291.53 111.33 3283.83 122.37H3461.06V171.57L3425.41 211.73H3521.81V447.2H3148.28V264.97L3139.75 270.99ZM3099.08 538.59V482.36H3569.51V538.59H3099.08ZM3383.25 174.6H3244.18C3232.46 188.33 3220.91 200.71 3209.54 211.75H3349.61L3383.25 174.6ZM3211.54 265.47V306.14H3304.42V265.47H3211.54ZM3211.54 351.82V393.49H3304.42V351.82H3211.54ZM3458.56 265.47H3365.68V306.14H3458.56V265.47ZM3365.68 351.82V393.49H3458.56V351.82H3365.68Z" fill="#0172F9"/>
<path d="M1656.05 33.81C1673.92 33.81 1691.09 35.81 1707.09 39.76C1739.64 47.8 1798.11 71.2 1824.03 137.65L1824.72 139.41C1830.33 153.71 1838 173.29 1836.8 219.32C1835.87 254.85 1820.53 285.1 1817.47 290.8C1811.44 302.01 1808.41 312.88 1807.27 316.97L1807.14 317.44C1799.61 343.86 1805.08 373.28 1823.84 407.3C1829.13 416.95 1845.38 441.98 1888.27 481.46C1886.37 480.42 1884.44 479.32 1882.48 478.15C1877.04 474.3 1851.78 456.47 1839.69 448.33C1838.96 447.84 1838.2 447.37 1837.43 446.94C1833.64 444.8 1825.84 441.22 1816.09 441.22C1804.56 441.22 1793.86 446.27 1786.72 455.08C1778.62 465.08 1776.15 477.85 1779.37 493.03C1779.61 494.17 1779.91 495.29 1780.27 496.4L1796.55 546.83L1803.76 568.75C1802.11 567.07 1800.52 565.27 1799.07 563.45C1786.17 547.15 1765.22 517.93 1754.74 502.21C1742.93 482.73 1719.71 449.71 1694.17 441.96C1688.9 440.36 1683.48 439.55 1678.08 439.55C1667.64 439.55 1632.48 443.37 1618.37 492.58C1614.97 504.44 1612.22 515.24 1609.57 525.68C1606.74 536.82 1603.81 548.34 1599.97 561.62C1599.76 562.34 1599.56 563.14 1599.4 563.87C1599.38 563.97 1597.25 573.61 1592.8 585.56C1591.89 588.01 1589.61 594.12 1587.42 598.46C1587.06 597.32 1586.66 595.43 1586.54 592.48C1586.53 592.21 1586.51 591.93 1586.5 591.66C1584.74 564.32 1584.72 553.45 1584.7 541.94C1584.69 537.62 1584.69 533.33 1584.59 528.29C1584.63 502.51 1579.87 458.38 1548.32 445.33C1544.16 443.47 1538.02 441.55 1530.33 441.55C1522.26 441.55 1510.1 443.71 1497.98 454.02C1497.76 454.21 1497.54 454.4 1497.32 454.6C1497 454.89 1469.01 479.95 1455.09 492.12C1458.45 482.08 1457.87 471.66 1453.18 462.63C1450.14 456.79 1445.59 452.03 1440.11 448.69C1462.88 428.47 1471.19 420.57 1475.07 415.42C1492.88 394.83 1514.98 351 1496.99 301.82C1496.92 301.63 1496.84 301.41 1496.76 301.22C1496.64 300.91 1484.57 269.42 1477.96 231.68C1475.54 217.83 1475.02 164.72 1494.96 125.17C1518.78 77.95 1556.82 48.82 1608 38.6C1623.82 35.41 1639.99 33.81 1656.05 33.81ZM1656.05 0C1637.01 0 1618.48 2 1601.38 5.41C1524.64 20.73 1485.34 69.16 1464.78 109.91C1441.57 155.93 1440.92 216.08 1444.66 237.47C1451.98 279.29 1465.23 313.4 1465.23 313.4C1482.04 359.37 1447.74 395.2 1447.74 395.2C1446.3 398.75 1396.28 442.08 1390.42 447.5C1384.56 452.93 1369.12 466.06 1359.21 480.6C1354.84 489.04 1360.9 494.87 1368.72 494.87C1369.83 494.87 1370.99 494.75 1372.15 494.51C1379.13 493.03 1414.41 478.35 1414.41 478.35C1417.13 477.41 1419.09 477.02 1420.47 477.02C1426.69 477.02 1421.2 484.86 1421.2 484.86L1388.31 529.12C1366.38 560.2 1370.91 569.41 1377.06 574.61C1378.82 576.1 1381.38 576.76 1384.46 576.76C1391.3 576.76 1400.7 573.5 1409.66 568.85C1422.65 562.11 1461.25 531.35 1472.34 521.87C1483.43 512.39 1519.88 479.75 1519.88 479.75C1524.01 476.24 1527.67 475.33 1530.34 475.33C1533.17 475.33 1534.88 476.34 1534.88 476.34C1550.96 482.09 1550.79 528.53 1550.79 528.53C1551.14 547.2 1550.27 555.06 1552.76 593.81C1554.05 626.17 1575.89 632.97 1586.23 633.53C1587.22 633.58 1588.17 633.61 1589.09 633.61C1600.61 633.61 1606.51 629.42 1611.48 623.42C1616.02 617.89 1619.52 610.63 1624.47 597.34C1629.95 582.64 1632.44 570.98 1632.44 570.98C1640.09 544.51 1644.05 525.65 1650.86 501.87C1656.57 481.96 1667.23 473.32 1678.07 473.33C1680.17 473.33 1682.28 473.66 1684.36 474.29C1701.61 479.52 1726.18 520.3 1726.18 520.3C1736.99 536.57 1759.03 567.31 1772.55 584.4C1775.02 587.52 1788.97 604.65 1806.01 610.56C1811.24 612.37 1816.02 612.99 1820.12 612.99C1829.17 612.99 1834.92 609.96 1834.92 609.96C1850.9 601.81 1839.87 571.28 1840.12 571.11L1828.65 536.24L1812.44 486C1810.54 477.03 1813.25 475.01 1816.09 475.01C1818.41 475.01 1820.81 476.36 1820.81 476.36C1833.94 485.2 1863.96 506.45 1863.96 506.45C1901.34 529.19 1931.99 531.19 1931.99 531.19C1938.27 532.17 1943.6 532.57 1948.16 532.57C1962.81 532.57 1969.36 528.43 1973.07 526C1977.92 522.81 1980.96 516.59 1980.42 512.86C1979.88 509.13 1973.17 504.97 1973.17 504.97C1970.85 503.15 1944.14 485.47 1929.23 472.64C1877.11 427.78 1858.58 400.33 1853.5 391.06C1836.31 359.88 1835.76 340.41 1839.66 326.72C1840.37 324.21 1842.67 315.36 1847.26 306.82C1850.63 300.54 1869.46 264.15 1870.61 220.21C1872.05 165.41 1861.79 141.38 1855.54 125.36C1826.08 49.85 1761.72 18.43 1715.21 6.94C1695.61 2.1 1675.56 0 1656.05 0Z" fill="#0172F9"/>
<path d="M1919.33 294.66H1670.54C1648.42 294.66 1630.49 276.73 1630.49 254.61V188.68C1630.49 166.56 1648.42 148.63 1670.54 148.63H1919.33C1941.45 148.63 1959.38 166.56 1959.38 188.68V254.61C1959.38 276.72 1941.45 294.66 1919.33 294.66Z" fill="#0172F9"/>
<path d="M1702.03 229.32H1694.95V261.37C1694.95 265.59 1694.02 268.7 1692.16 270.69C1690.3 272.69 1687.87 273.68 1684.88 273.68C1681.66 273.68 1679.16 272.64 1677.4 270.55C1675.63 268.46 1674.75 265.4 1674.75 261.36V184.61C1674.75 180.26 1675.73 177.1 1677.68 175.15C1679.63 173.2 1682.78 172.22 1687.14 172.22H1720C1724.53 172.22 1728.41 172.41 1731.63 172.8C1734.85 173.19 1737.75 173.97 1740.34 175.15C1743.47 176.47 1746.24 178.35 1748.64 180.8C1751.04 183.25 1752.87 186.1 1754.12 189.34C1755.37 192.58 1755.99 196.02 1755.99 199.65C1755.99 207.09 1753.89 213.03 1749.7 217.48C1745.5 221.93 1739.14 225.08 1730.62 226.94C1734.2 228.85 1737.63 231.66 1740.89 235.38C1744.16 239.1 1747.07 243.06 1749.63 247.25C1752.19 251.45 1754.19 255.23 1755.62 258.61C1757.05 261.99 1757.76 264.32 1757.76 265.58C1757.76 266.9 1757.34 268.2 1756.5 269.49C1755.66 270.78 1754.52 271.8 1753.06 272.55C1751.61 273.3 1749.93 273.67 1748.03 273.67C1745.76 273.67 1743.86 273.14 1742.31 272.07C1740.77 271 1739.44 269.66 1738.33 268.02C1737.22 266.39 1735.71 263.98 1733.81 260.81L1725.71 247.34C1722.81 242.4 1720.21 238.63 1717.92 236.05C1715.63 233.46 1713.3 231.7 1710.95 230.74C1708.59 229.79 1705.61 229.32 1702.03 229.32ZM1713.6 187.41H1694.96V214.83H1713.06C1717.91 214.83 1722 214.41 1725.31 213.57C1728.62 212.73 1731.15 211.3 1732.9 209.28C1734.65 207.26 1735.52 204.48 1735.52 200.94C1735.52 198.17 1734.82 195.73 1733.41 193.63C1732 191.52 1730.05 189.95 1727.56 188.9C1725.19 187.91 1720.54 187.41 1713.6 187.41Z" fill="white"/>
<path d="M1813.82 233.13H1795.31V261.37C1795.31 265.41 1794.36 268.47 1792.45 270.56C1790.54 272.65 1788.14 273.69 1785.24 273.69C1782.2 273.69 1779.75 272.66 1777.89 270.59C1776.03 268.53 1775.1 265.5 1775.1 261.51V184.63C1775.1 180.18 1776.12 177.01 1778.16 175.1C1780.2 173.19 1783.44 172.24 1787.89 172.24H1813.81C1821.47 172.24 1827.37 172.83 1831.5 174.01C1835.58 175.14 1839.11 177.03 1842.08 179.66C1845.05 182.29 1847.31 185.51 1848.85 189.32C1850.39 193.13 1851.16 197.42 1851.16 202.18C1851.16 212.34 1848.03 220.04 1841.77 225.28C1835.52 230.51 1826.2 233.13 1813.82 233.13ZM1808.92 187.41H1795.31V217.89H1808.92C1813.68 217.89 1817.66 217.39 1820.86 216.39C1824.06 215.39 1826.5 213.76 1828.17 211.49C1829.85 209.22 1830.69 206.25 1830.69 202.58C1830.69 198.18 1829.4 194.6 1826.81 191.83C1823.91 188.88 1817.94 187.41 1808.92 187.41Z" fill="white"/>
<path d="M1919.62 260.68L1914.86 248.16H1874.31L1869.55 260.95C1867.69 265.94 1866.1 269.31 1864.79 271.05C1863.47 272.8 1861.32 273.67 1858.33 273.67C1855.79 273.67 1853.54 272.74 1851.59 270.88C1849.64 269.02 1848.66 266.91 1848.66 264.55C1848.66 263.19 1848.89 261.78 1849.34 260.33C1849.79 258.88 1850.54 256.86 1851.59 254.27L1877.1 189.5C1877.82 187.64 1878.7 185.41 1879.72 182.8C1880.74 180.19 1881.83 178.03 1882.99 176.3C1884.15 174.58 1885.67 173.18 1887.55 172.12C1889.43 171.05 1891.76 170.52 1894.52 170.52C1897.33 170.52 1899.68 171.05 1901.56 172.12C1903.44 173.19 1904.96 174.56 1906.12 176.24C1907.28 177.92 1908.25 179.72 1909.05 181.65C1909.84 183.58 1910.85 186.15 1912.08 189.37L1938.14 253.73C1940.18 258.63 1941.2 262.19 1941.2 264.41C1941.2 266.72 1940.24 268.84 1938.31 270.77C1936.38 272.7 1934.06 273.66 1931.34 273.66C1929.75 273.66 1928.39 273.38 1927.26 272.81C1926.13 272.24 1925.17 271.47 1924.4 270.5C1923.63 269.52 1922.8 268.03 1921.92 266.01C1921.01 264.01 1920.25 262.22 1919.62 260.68ZM1879.61 232.99H1909.41L1894.37 191.83L1879.61 232.99Z" fill="white"/>
<path d="M2.09 185.98H32.16L30.47 192.4C24.54 216.8 16.16 239.97 5.46 261.31C4.77 262.69 5.75 264.27 7.29 264.27H45.76C46.58 264.27 47.34 263.8 47.69 263.06C57.85 241.36 65.7 216.88 71.03 190.15L71.88 185.99H94.38V258.3C94.38 259.45 95.32 260.39 96.47 260.39H138.41C139.57 260.39 140.5 259.46 140.5 258.3V185.99H163.63L164.26 190.29C169.11 215.58 176.96 240.12 187.66 263.05C188.01 263.8 188.77 264.27 189.59 264.27H230.3C230.3 264.27 230.62 264.27 230.73 264.02C230.81 263.83 230.58 263.45 230.58 263.45L225.6 252.64C216.85 234.51 209.66 214.21 204.3 192.34L202.82 185.99H232.75C233.9 185.99 234.84 185.06 234.84 183.9V142.94C234.84 141.79 233.9 140.85 232.75 140.85H140.48V61.19C140.48 60.04 139.55 59.1 138.39 59.1H96.45C95.29 59.1 94.36 60.04 94.36 61.19V140.84H2.09C0.94 140.84 0 141.77 0 142.93V183.89C0 185.04 0.94 185.98 2.09 185.98Z" fill="#0172F9"/>
<path d="M433.54 102.9H319.12L319.97 97.05C322.01 81.1 323.56 67.62 324.56 56.94C324.67 55.71 323.7 54.74 322.46 54.74H277.05C275.99 54.74 275.1 55.55 274.99 56.61C268.09 125.12 254.69 190.85 235.12 252C235.12 252 234.77 253.46 234.76 253.75C234.75 254.08 235.37 254.05 235.37 254.05H274.4L275.46 257.72L312.63 366.68L311.85 368.02C295.45 401.79 272.76 439.11 244.38 479.31C243.41 480.69 244.36 482.62 246.04 482.62H304.97C305.7 482.62 306.38 482.22 306.77 481.6C324.3 453.36 337.34 430.44 345.71 413.5L350.65 403.34L383.4 481.33C383.73 482.11 384.49 482.61 385.33 482.61H432.26C433.76 482.61 434.77 481.08 434.18 479.7L380.34 353.27L380.97 351.44C391.62 320.27 400.36 286.13 407 249.96C411.87 220.83 415.46 190.79 417.72 160.53L417.86 155.81H433.54C434.69 155.81 435.63 154.87 435.63 153.72V105C435.63 103.83 434.69 102.9 433.54 102.9ZM371.52 161.36C366.65 215.17 357.91 262.49 345.5 302.06L340.42 318.07L303.68 193.31L311.08 155.79H371.94L371.52 161.36Z" fill="#0172F9"/>
<path d="M237.55 306.57H110.02L121.35 280.87C121.96 279.49 120.95 277.94 119.44 277.94H74C73.31 278.39 72.78 278.74 72.09 279.19L60.02 306.58H2.09C0.94 306.58 0 307.52 0 308.67V346.8C0 347.95 0.94 348.89 2.09 348.89H41.68L28.79 378.18C26.61 383.14 28.7 388.94 33.55 391.37L93.37 421.31L83.57 425.75C61.26 435.98 33.87 441.94 2 443.44C0.9 443.49 0 444.39 0 445.5V485.22C0 486.41 1.01 487.38 2.2 487.34C54.98 485.88 99.72 471.87 135.34 445.65L137.81 443.74L227.87 489.3L228.43 489.58C228.43 489.58 230.6 490.85 231.26 490.69C231.53 490.62 231.5 489.78 231.5 489.78L231.39 485.35V447.41C230.98 446.74 230.67 446.22 230.26 445.56L169.33 414.06L173.21 409.12C185.83 393.32 197.26 374.07 207.06 352L208.33 348.9H237.55C238.71 348.9 239.64 347.96 239.64 346.81V308.68C239.64 307.51 238.71 306.57 237.55 306.57ZM156.92 356.5C149.3 370.11 141.05 381.75 132.38 391.06L129.7 393.88L84.3 370.33C83.3 369.81 82.88 368.61 83.34 367.58L91.76 348.88H161.23L156.92 356.5Z" fill="#0172F9"/>
<path d="M30.5 118.84H68.87C70.26 118.84 71.26 117.5 70.87 116.17L56.15 65.48C55.89 64.59 55.07 63.97 54.14 63.97H16.16C14.77 63.97 13.77 65.29 14.15 66.63L28.48 117.32C28.74 118.22 29.56 118.84 30.5 118.84Z" fill="#0172F9"/>
<path d="M166.29 118.84H204.28C205.21 118.84 206.03 118.22 206.29 117.32L220.69 66.63C221.07 65.3 220.07 63.97 218.68 63.97H180.3C179.36 63.97 178.54 64.6 178.29 65.5L164.28 116.19C163.91 117.52 164.91 118.84 166.29 118.84Z" fill="#0172F9"/>
<path d="M580.62 157.92V200.69C580.62 201.62 581.24 202.44 582.14 202.7L639.18 219.06C640.51 219.44 641.85 218.44 641.85 217.05V174.15C641.85 173.22 641.23 172.4 640.33 172.14L583.29 155.91C581.95 155.54 580.62 156.54 580.62 157.92Z" fill="#0172F9"/>
<path d="M640.73 260.24L574.03 241.86C572.7 241.49 571.39 242.5 571.39 243.87V285.74C571.39 286.68 572.01 287.5 572.91 287.75L639.61 306.6C640.94 306.98 642.27 305.97 642.27 304.59V262.26C642.26 261.31 641.63 260.49 640.73 260.24Z" fill="#0172F9"/>
<path d="M641.09 339.58H600.83C599.79 339.58 598.93 340.33 598.79 341.36C592.8 385.42 582.06 429.92 566.85 473.72C566.38 475.07 567.37 476.47 568.79 476.47H613.65C614.56 476.47 615.37 475.91 615.65 475.04C627.72 438.41 636.98 393.66 643.17 341.96C643.33 340.71 642.35 339.58 641.09 339.58Z" fill="#0172F9"/>
<path d="M544.89 153.46H499.07C497.91 153.46 496.98 154.4 496.98 155.55L497.4 485.3C497.4 486.45 498.34 487.39 499.49 487.39H544.89C546.04 487.39 546.98 486.46 546.98 485.3V155.55C546.98 154.4 546.05 153.46 544.89 153.46Z" fill="#0172F9"/>
<path d="M858.21 67.35H649.36C648.21 67.35 647.27 68.29 647.27 69.44V112.37C647.27 113.52 648.21 114.46 649.36 114.46H848.09C854.49 114.46 859.68 119.65 859.68 126.05V434.5H845.58V485.3C845.58 486.45 846.51 487.39 847.67 487.39H907.6C908.75 487.39 909.69 486.46 909.69 485.3L910.18 119.39C910.22 90.67 886.94 67.35 858.21 67.35Z" fill="#0172F9"/>
<path d="M838.06 239.08H771.18V198.04L775.83 197.62C794.2 196.19 811.91 194.5 828.65 192.61C829.71 192.49 830.48 191.59 830.48 190.53V148.2C830.48 146.95 829.43 145.99 828.19 146.14C780.8 151.75 727.43 154.68 669.24 154.89C668.09 154.89 667.15 155.82 667.15 156.97V199.41C667.15 200.57 668.02 201.51 669.18 201.5C682.29 201.41 700.28 201.13 722.65 200.52H727.87V239.1H661.98C660.82 239.1 659.89 240.04 659.89 241.19V283.06C659.89 284.21 660.83 285.15 661.98 285.15H727.87V327.53H684.16C675.58 327.53 668.62 334.49 668.62 343.07V452.98C668.62 461.56 675.58 468.52 684.16 468.52H813.95C822.53 468.52 829.49 461.56 829.49 452.98V343.05C829.49 334.47 822.53 327.51 813.95 327.51H771.16V285.13H838.04C839.19 285.13 840.13 284.19 840.13 283.04V241.17C840.15 240.02 839.22 239.08 838.06 239.08ZM781.95 376.25C782.39 376.25 782.74 376.6 782.74 377.04V419.46C782.74 419.9 782.39 420.25 781.95 420.25H716.18C715.74 420.25 715.39 419.9 715.39 419.46V377.04C715.39 376.6 715.74 376.25 716.18 376.25H781.95Z" fill="#0172F9"/>
<path d="M611.39 120.26L584.85 61.32C584.51 60.57 583.77 60.09 582.94 60.09H529.76C528.24 60.09 527.23 61.65 527.85 63.04L554.39 121.98C554.73 122.73 555.47 123.21 556.3 123.21H609.48C611 123.21 612.01 121.65 611.39 120.26Z" fill="#0172F9"/>
<path d="M20.3099 596C18.2999 596 16.3099 595.92 14.3399 595.77C12.3599 595.62 10.5099 595.41 8.78994 595.16C7.06994 594.92 5.52994 594.65 4.17994 594.36C2.82994 594.07 1.74994 593.78 0.939941 593.46V585.66C1.87994 586.04 3.06994 586.4 4.51994 586.74C5.95994 587.09 7.51994 587.4 9.20994 587.69C10.8999 587.97 12.6899 588.19 14.5799 588.34C16.4599 588.49 18.3599 588.57 20.3099 588.57C25.1999 588.57 28.8899 587.75 31.3999 586.12C33.9099 584.5 35.1599 581.64 35.1599 577.57C35.1599 575.56 34.9599 573.89 34.5499 572.54C34.1399 571.19 33.3799 570.05 32.2399 569.1C31.1199 568.16 29.5799 567.35 27.6399 566.66C25.6899 565.97 23.1799 565.25 20.1099 564.5C16.7899 563.68 13.9699 562.84 11.6499 561.96C9.32994 561.08 7.44994 559.97 6.00994 558.62C4.56994 557.27 3.51994 555.62 2.85994 553.68C2.20994 551.74 1.86994 549.32 1.86994 546.44C1.86994 540.49 3.64994 536.05 7.18994 533.14C10.7299 530.23 16.1999 528.77 23.5899 528.77C25.1599 528.77 26.7399 528.83 28.3399 528.95C29.9299 529.08 31.4699 529.25 32.9399 529.47C34.4199 529.68 35.7699 529.94 36.9899 530.22C38.1999 530.5 39.1899 530.79 39.9499 531.11V538.82C38.0699 538.13 35.6199 537.51 32.6099 536.98C29.5999 536.45 26.6199 536.18 23.6799 536.18C21.4199 536.18 19.4499 536.32 17.7499 536.6C16.0599 536.89 14.6499 537.41 13.5199 538.15C12.3999 538.9 11.5599 539.94 11.0299 541.25C10.4999 542.57 10.2299 544.3 10.2299 546.42C10.2299 547.93 10.3699 549.23 10.6499 550.33C10.9399 551.42 11.5499 552.38 12.4899 553.2C13.4299 554.02 14.7799 554.75 16.5299 555.4C18.2799 556.06 20.6399 556.74 23.5799 557.43C27.2199 558.31 30.2999 559.23 32.8399 560.19C35.3799 561.17 37.4299 562.4 38.9999 563.91C40.5599 565.41 41.6899 567.25 42.3899 569.41C43.0699 571.57 43.4199 574.25 43.4199 577.45C43.4199 583.84 41.4599 588.53 37.5399 591.5C33.6399 594.51 27.8899 596 20.3099 596Z" fill="#0172F9"/>
<path d="M226.97 595.06H216.05L192.74 564.41H188.13V595.06H179.67V529.81H188.13V556.99H192.74L215.58 529.81H226.12L199.41 560.18L226.97 595.06Z" fill="#0172F9"/>
<path d="M359.62 529.81H368.08V595.06H359.62V529.81Z" fill="#0172F9"/>
<path d="M546.26 587.45V595.06H507.61V529.81H543.9V537.33H516.07V557.55H542.02V564.69H516.07V587.45H546.26Z" fill="#0172F9"/>
<path d="M720.76 587.45V595.06H682.11V529.81H718.4V537.33H690.57V557.55H716.52V564.69H690.57V587.45H720.76Z" fill="#0172F9"/>
<path d="M894.32 595.06L876.36 568.74C875.86 568.8 875.34 568.83 874.81 568.83C874.28 568.83 873.73 568.83 873.17 568.83H865.08V595.06H856.62V529.81H873.17C877.74 529.81 881.62 530.14 884.78 530.8C887.94 531.45 890.51 532.53 892.49 534.04C894.46 535.54 895.89 537.53 896.76 540.01C897.64 542.49 898.08 545.51 898.08 549.08C898.08 554.72 896.99 559.01 894.79 561.91C892.59 564.83 889.24 566.79 884.72 567.79L904.28 595.06H894.32V595.06ZM872.41 561.78C875.42 561.78 878.01 561.64 880.16 561.35C882.32 561.06 884.1 560.49 885.48 559.62C886.86 558.75 887.88 557.46 888.54 555.76C889.19 554.07 889.52 551.84 889.52 549.08C889.52 546.64 889.19 544.63 888.54 543.07C887.88 541.5 886.86 540.27 885.48 539.4C884.1 538.53 882.33 537.93 880.16 537.61C878.01 537.29 875.42 537.14 872.41 537.14H865.07V561.78H872.41V561.78Z" fill="#0172F9"/>
<path d="M1175.51 69.33H1151.51V605.33H1175.51V69.33Z" fill="#CCCCCC"/>
</g>
<defs>
<clipPath id="clip0_1275_40115">
<rect width="3569.51" height="633.63" fill="white"/>
</clipPath>
</defs>
</svg>
